<?xml version="1.0" standalone="no"?>
<!DOCTYPE svg PUBLIC "-//W3C//DTD SVG 20010904//EN"
 "http://www.w3.org/TR/2001/REC-SVG-20010904/DTD/svg10.dtd">
<svg version="1.0" xmlns="http://www.w3.org/2000/svg"
 width="88.000000pt" height="89.000000pt" viewBox="0 0 88.000000 89.000000"
 preserveAspectRatio="xMidYMid meet">

<g transform="translate(0.000000,89.000000) scale(0.100000,-0.100000)"
fill="#000000" stroke="none">
<path d="M300 862 c-138 -53 -232 -149 -275 -280 -13 -41 -16 -78 -13 -155 4
-113 28 -181 90 -260 l33 -41 5 194 c5 177 8 200 29 247 27 60 93 126 154 154
65 29 173 26 242 -7 64 -30 130 -100 147 -155 l11 -39 74 0 73 0 -6 28 c-27
119 -126 241 -241 295 -61 28 -79 32 -173 34 -80 2 -116 -2 -150 -15z"/>
<path d="M384 580 c-11 -4 -34 -24 -52 -44 -28 -32 -32 -44 -32 -91 0 -46 5
-59 30 -89 91 -103 250 -45 250 91 0 97 -107 169 -196 133z"/>
<path d="M716 342 c-12 -52 -77 -125 -145 -159 -51 -27 -74 -33 -126 -33 -34
0 -81 7 -104 15 l-41 14 0 -74 c0 -41 4 -76 9 -79 5 -4 37 -10 70 -14 135 -19
269 27 366 123 51 51 106 147 119 208 l6 27 -74 0 c-73 0 -75 0 -80 -28z"/>
</g>
</svg>
